#N canvas 954 551 550 527 10;
#X floatatom 76 167 5 0 0 0 - - -;
#X obj 76 194 osc~ 0;
#X obj 78 368 dac~;
#X obj 128 233 / 100;
#X obj 128 256 pack 0 5;
#X obj 128 279 line~;
#X obj 77 329 *~;
#X text 124 161 Create a sound;
#X text 276 115 Turn DSP on and off;
#X text 277 271 Receive messages from Python an droute them to the
proper receive objects in the patch, f 22;
#X obj 281 145 r audio_on_off;
#X obj 282 178 tgl 15 0 empty empty empty 17 7 0 10 -262144 -1 -1 1
1;
#X msg 281 211 \; pd dsp \$1 \;;
#X obj 362 399 route 0 1;
#X obj 362 436 s audio_on_off;
#X obj 460 436 s volume;
#X obj 284 352 netreceive 3000 1;
#X obj 284 400 s pitch;
#X obj 76 115 r pitch;
#X floatatom 128 201 5 0 0 0 - - -;
#X obj 235 433 print pitch;
#X connect 0 0 1 0;
#X connect 1 0 6 0;
#X connect 3 0 4 0;
#X connect 4 0 5 0;
#X connect 5 0 6 1;
#X connect 6 0 2 0;
#X connect 6 0 2 1;
#X connect 10 0 11 0;
#X connect 11 0 12 0;
#X connect 13 0 14 0;
#X connect 13 1 15 0;
#X connect 16 0 13 0;
#X connect 16 0 17 0;
#X connect 16 0 20 0;
#X connect 18 0 0 0;
#X connect 19 0 3 0;
